<?xml version="1.0" encoding="UTF-8" standalone="no"?>
<!-- Created with Inkscape (http://www.inkscape.org/) -->

<svg
   xmlns:dc="http://purl.org/dc/elements/1.1/"
   xmlns:cc="http://creativecommons.org/ns#"
   xmlns:rdf="http://www.w3.org/1999/02/22-rdf-syntax-ns#"
   xmlns:svg="http://www.w3.org/2000/svg"
   xmlns="http://www.w3.org/2000/svg"
   version="1.0"
   width="56.062"
   height="100"
   viewBox="0 0 56.062 100"
   id="Layer_1"
   xml:space="preserve"><metadata
   id="metadata5105"><rdf:RDF><cc:Work
       rdf:about=""><dc:format>image/svg+xml</dc:format><dc:type
         rdf:resource="http://purl.org/dc/dcmitype/StillImage" /><dc:title></dc:title></cc:Work></rdf:RDF></metadata><defs
   id="defs5103" />
<path
   d="m 52.836,93.436 h -1.52 C 50.43,92.425 50.1,91.16 50.366,89.599 c 0.444,-2.574 2.278,-4.71 3.152,-5.02 l -0.013,-0.024 c 1.241,-0.447 2.164,-1.65 2.164,-3.07 l 0.063,-67.348 c 0,-1.805 -1.456,-3.276 -3.228,-3.288 0,0 -13.481,-0.012 -17.176,-0.039 0.012,-3.174 0.023,-7.526 0.023,-7.526 0,-1.329 -0.771,-2.519 -1.987,-3.03 -1.213,-0.512 -2.594,-0.231 -3.53,0.688 L 7.277,23.579 C 3.316,27.56 0.19,35.083 0.177,40.741 L 0,87.856 c -0.012,6.591 5.278,11.99 11.824,12.017 l 41,0.127 c 1.783,0 3.239,-1.472 3.239,-3.264 v -0.011 c -0.001,-1.82 -1.43,-3.277 -3.227,-3.289 M 49.239,17.4 c 0,5.618 -0.05,55.179 -0.062,60.809 H 12.228 L 35.365,58.605 35.317,17.374 c 2.1,0.012 11.974,0.026 13.922,0.026 M 6.481,87.869 c 0,0 0.012,-2.712 0.012,-3.109 h 38.696 c -0.557,1.19 -1,2.444 -1.215,3.712 -0.304,1.752 -0.152,3.39 0.239,4.938 L 11.846,93.307 c -2.96,0 -5.365,-2.431 -5.365,-5.438"
   id="path2468"
   style="fill:#009000;fill-opacity:1" />
</svg>