<?xml version="1.0" encoding="UTF-8" standalone="no"?>
<!-- Created with Inkscape (http://www.inkscape.org/) -->

<svg
   xmlns:dc="http://purl.org/dc/elements/1.1/"
   xmlns:cc="http://creativecommons.org/ns#"
   xmlns:rdf="http://www.w3.org/1999/02/22-rdf-syntax-ns#"
   xmlns:svg="http://www.w3.org/2000/svg"
   xmlns="http://www.w3.org/2000/svg"
   version="1.0"
   width="100"
   height="77.913002"
   viewBox="0 0 100 77.913"
   id="Layer_1"
   xml:space="preserve"><metadata
   id="metadata8026"><rdf:RDF><cc:Work
       rdf:about=""><dc:format>image/svg+xml</dc:format><dc:type
         rdf:resource="http://purl.org/dc/dcmitype/StillImage" /><dc:title></dc:title></cc:Work></rdf:RDF></metadata><defs
   id="defs8024" />
<path
   d="M 87.838,3.242 C 86.384,-0.196 71.381,-5.747 66.424,16.395 L 40.251,36.025 1.098,59.468 3.059,60.147 8.261,58.629 0,63.508 2.709,64.446 30.733,56.118 c 0,0 12.643,1.727 22.494,1.734 -0.464,0.929 -0.928,1.857 -1.393,2.786 -0.469,0.939 3.497,10.33 4.962,14.802 -2.47,0.375 -4.941,0.751 -7.411,1.126 -0.883,0.134 -0.506,1.471 0.369,1.338 2.602,-0.395 5.203,-0.79 7.804,-1.185 2.601,0.395 5.203,0.79 7.803,1.185 0.875,0.133 1.252,-1.204 0.369,-1.338 -2.491,-0.379 -4.983,-0.757 -7.475,-1.136 -0.113,-0.385 -0.227,-0.77 -0.341,-1.154 -0.442,-1.498 -0.884,-2.995 -1.327,-4.493 -0.827,-2.798 -1.652,-5.596 -2.479,-8.394 -0.006,-0.02 -0.012,-0.032 -0.017,-0.049 0.3,-0.602 9.757,-4.912 9.757,-4.912 0,0 -0.004,0 -0.005,-10e-4 C 98.2,44.06 79.276,15.709 86.517,11.306 89.562,9.455 100,6.679 100,6.679 100,3.52 87.838,3.242 87.838,3.242 z"
   id="path8020"
   style="fill:#0000ff;fill-opacity:1" />
</svg>